<mxfile host="app.diagrams.net" modified="2023-06-28T21:12:15.654Z" agent="Mozilla/5.0 (X11; Linux x86_64) AppleWebKit/537.36 (KHTML, like Gecko) Chrome/114.0.0.0 Safari/537.36" etag="1k_r3JKNYLYPxsyFv-S3" version="21.5.1" type="google">
  <diagram name="PÃ¡gina-1" id="BSmFDkLImr6jwAg4htdJ">
    <mxGraphModel grid="1" page="1" gridSize="10" guides="1" tooltips="1" connect="1" arrows="1" fold="1" pageScale="1" pageWidth="827" pageHeight="1169" math="0" shadow="0">
      <root>
        <mxCell id="0" />
        <mxCell id="1" parent="0" />
        <mxCell id="WzGFnHPqga62-5LOLE94-16" style="edgeStyle=orthogonalEdgeStyle;rounded=0;orthogonalLoop=1;jettySize=auto;html=1;exitX=0.5;exitY=0;exitDx=0;exitDy=0;entryX=0.5;entryY=1;entryDx=0;entryDy=0;endArrow=none;endFill=0;" edge="1" parent="1" source="WzGFnHPqga62-5LOLE94-5" target="WzGFnHPqga62-5LOLE94-9">
          <mxGeometry relative="1" as="geometry" />
        </mxCell>
        <mxCell id="WzGFnHPqga62-5LOLE94-5" value="SCHOOL_PROJECT" style="whiteSpace=wrap;html=1;align=center;" vertex="1" parent="1">
          <mxGeometry x="-44" y="90" width="136" height="40" as="geometry" />
        </mxCell>
        <mxCell id="WzGFnHPqga62-5LOLE94-6" value="DATE" style="ellipse;whiteSpace=wrap;html=1;align=center;" vertex="1" parent="1">
          <mxGeometry x="-160" y="160" width="100" height="40" as="geometry" />
        </mxCell>
        <mxCell id="WzGFnHPqga62-5LOLE94-7" value="CONTENT" style="ellipse;whiteSpace=wrap;html=1;align=center;" vertex="1" parent="1">
          <mxGeometry x="60" y="-30" width="100" height="40" as="geometry" />
        </mxCell>
        <mxCell id="WzGFnHPqga62-5LOLE94-8" value="INIT_IMAGE" style="ellipse;whiteSpace=wrap;html=1;align=center;" vertex="1" parent="1">
          <mxGeometry x="124" y="20" width="100" height="40" as="geometry" />
        </mxCell>
        <mxCell id="WzGFnHPqga62-5LOLE94-9" value="DESCRIPTION" style="ellipse;whiteSpace=wrap;html=1;align=center;" vertex="1" parent="1">
          <mxGeometry x="-26" y="10" width="100" height="40" as="geometry" />
        </mxCell>
        <mxCell id="WzGFnHPqga62-5LOLE94-10" value="TITLE" style="ellipse;whiteSpace=wrap;html=1;align=center;" vertex="1" parent="1">
          <mxGeometry x="-106" y="-30" width="100" height="40" as="geometry" />
        </mxCell>
        <mxCell id="WzGFnHPqga62-5LOLE94-12" value="ID" style="ellipse;whiteSpace=wrap;html=1;align=center;fontStyle=4;" vertex="1" parent="1">
          <mxGeometry x="-176" y="20" width="100" height="40" as="geometry" />
        </mxCell>
        <mxCell id="WzGFnHPqga62-5LOLE94-14" value="REPOSITORY" style="ellipse;whiteSpace=wrap;html=1;align=center;" vertex="1" parent="1">
          <mxGeometry x="-60" y="160" width="100" height="40" as="geometry" />
        </mxCell>
        <mxCell id="WzGFnHPqga62-5LOLE94-22" value="" style="endArrow=none;html=1;rounded=0;exitX=0.5;exitY=1;exitDx=0;exitDy=0;entryX=0.25;entryY=0;entryDx=0;entryDy=0;" edge="1" parent="1" source="WzGFnHPqga62-5LOLE94-10" target="WzGFnHPqga62-5LOLE94-5">
          <mxGeometry relative="1" as="geometry">
            <mxPoint x="-180" y="310" as="sourcePoint" />
            <mxPoint x="-20" y="310" as="targetPoint" />
          </mxGeometry>
        </mxCell>
        <mxCell id="WzGFnHPqga62-5LOLE94-23" value="" style="endArrow=none;html=1;rounded=0;entryX=0.5;entryY=1;entryDx=0;entryDy=0;exitX=0.75;exitY=0;exitDx=0;exitDy=0;" edge="1" parent="1" source="WzGFnHPqga62-5LOLE94-5" target="WzGFnHPqga62-5LOLE94-7">
          <mxGeometry relative="1" as="geometry">
            <mxPoint x="-180" y="310" as="sourcePoint" />
            <mxPoint x="-20" y="310" as="targetPoint" />
          </mxGeometry>
        </mxCell>
        <mxCell id="WzGFnHPqga62-5LOLE94-24" value="" style="endArrow=none;html=1;rounded=0;exitX=1;exitY=0.5;exitDx=0;exitDy=0;entryX=0;entryY=0;entryDx=0;entryDy=0;" edge="1" parent="1" source="WzGFnHPqga62-5LOLE94-12" target="WzGFnHPqga62-5LOLE94-5">
          <mxGeometry relative="1" as="geometry">
            <mxPoint x="-180" y="310" as="sourcePoint" />
            <mxPoint x="-20" y="310" as="targetPoint" />
          </mxGeometry>
        </mxCell>
        <mxCell id="WzGFnHPqga62-5LOLE94-25" value="" style="endArrow=none;html=1;rounded=0;entryX=0;entryY=0.5;entryDx=0;entryDy=0;exitX=1;exitY=0;exitDx=0;exitDy=0;" edge="1" parent="1" source="WzGFnHPqga62-5LOLE94-5" target="WzGFnHPqga62-5LOLE94-8">
          <mxGeometry relative="1" as="geometry">
            <mxPoint x="-180" y="310" as="sourcePoint" />
            <mxPoint x="-20" y="310" as="targetPoint" />
          </mxGeometry>
        </mxCell>
        <mxCell id="WzGFnHPqga62-5LOLE94-26" value="" style="endArrow=none;html=1;rounded=0;entryX=0.25;entryY=1;entryDx=0;entryDy=0;exitX=0.5;exitY=0;exitDx=0;exitDy=0;" edge="1" parent="1" source="WzGFnHPqga62-5LOLE94-6" target="WzGFnHPqga62-5LOLE94-5">
          <mxGeometry relative="1" as="geometry">
            <mxPoint x="-180" y="310" as="sourcePoint" />
            <mxPoint x="-20" y="310" as="targetPoint" />
          </mxGeometry>
        </mxCell>
        <mxCell id="WzGFnHPqga62-5LOLE94-27" value="" style="endArrow=none;html=1;rounded=0;entryX=0.75;entryY=1;entryDx=0;entryDy=0;exitX=0.5;exitY=0;exitDx=0;exitDy=0;" edge="1" parent="1" source="WzGFnHPqga62-5LOLE94-14" target="WzGFnHPqga62-5LOLE94-5">
          <mxGeometry relative="1" as="geometry">
            <mxPoint x="-180" y="310" as="sourcePoint" />
            <mxPoint x="-20" y="310" as="targetPoint" />
          </mxGeometry>
        </mxCell>
        <mxCell id="WzGFnHPqga62-5LOLE94-28" style="edgeStyle=orthogonalEdgeStyle;rounded=0;orthogonalLoop=1;jettySize=auto;html=1;exitX=0.5;exitY=0;exitDx=0;exitDy=0;entryX=0.5;entryY=1;entryDx=0;entryDy=0;endArrow=none;endFill=0;" edge="1" parent="1" source="WzGFnHPqga62-5LOLE94-29" target="WzGFnHPqga62-5LOLE94-33">
          <mxGeometry relative="1" as="geometry" />
        </mxCell>
        <mxCell id="WzGFnHPqga62-5LOLE94-29" value="PERSONAL_PROJECT" style="whiteSpace=wrap;html=1;align=center;" vertex="1" parent="1">
          <mxGeometry x="-44" y="350" width="136" height="40" as="geometry" />
        </mxCell>
        <mxCell id="WzGFnHPqga62-5LOLE94-30" value="DATE" style="ellipse;whiteSpace=wrap;html=1;align=center;" vertex="1" parent="1">
          <mxGeometry x="-144" y="410" width="100" height="40" as="geometry" />
        </mxCell>
        <mxCell id="WzGFnHPqga62-5LOLE94-31" value="CONTENT" style="ellipse;whiteSpace=wrap;html=1;align=center;" vertex="1" parent="1">
          <mxGeometry x="60" y="230" width="100" height="40" as="geometry" />
        </mxCell>
        <mxCell id="WzGFnHPqga62-5LOLE94-32" value="INIT_IMAGE" style="ellipse;whiteSpace=wrap;html=1;align=center;" vertex="1" parent="1">
          <mxGeometry x="124" y="280" width="100" height="40" as="geometry" />
        </mxCell>
        <mxCell id="WzGFnHPqga62-5LOLE94-33" value="DESCRIPTION" style="ellipse;whiteSpace=wrap;html=1;align=center;" vertex="1" parent="1">
          <mxGeometry x="-26" y="270" width="100" height="40" as="geometry" />
        </mxCell>
        <mxCell id="WzGFnHPqga62-5LOLE94-34" value="TITLE" style="ellipse;whiteSpace=wrap;html=1;align=center;" vertex="1" parent="1">
          <mxGeometry x="-106" y="230" width="100" height="40" as="geometry" />
        </mxCell>
        <mxCell id="WzGFnHPqga62-5LOLE94-35" value="ID" style="ellipse;whiteSpace=wrap;html=1;align=center;fontStyle=4;" vertex="1" parent="1">
          <mxGeometry x="-176" y="280" width="100" height="40" as="geometry" />
        </mxCell>
        <mxCell id="WzGFnHPqga62-5LOLE94-36" value="REPOSITORY" style="ellipse;whiteSpace=wrap;html=1;align=center;" vertex="1" parent="1">
          <mxGeometry x="-40" y="410" width="100" height="40" as="geometry" />
        </mxCell>
        <mxCell id="WzGFnHPqga62-5LOLE94-37" value="" style="endArrow=none;html=1;rounded=0;exitX=0.5;exitY=1;exitDx=0;exitDy=0;entryX=0.25;entryY=0;entryDx=0;entryDy=0;" edge="1" parent="1" source="WzGFnHPqga62-5LOLE94-34" target="WzGFnHPqga62-5LOLE94-29">
          <mxGeometry relative="1" as="geometry">
            <mxPoint x="-180" y="570" as="sourcePoint" />
            <mxPoint x="-20" y="570" as="targetPoint" />
          </mxGeometry>
        </mxCell>
        <mxCell id="WzGFnHPqga62-5LOLE94-38" value="" style="endArrow=none;html=1;rounded=0;entryX=0.5;entryY=1;entryDx=0;entryDy=0;exitX=0.75;exitY=0;exitDx=0;exitDy=0;" edge="1" parent="1" source="WzGFnHPqga62-5LOLE94-29" target="WzGFnHPqga62-5LOLE94-31">
          <mxGeometry relative="1" as="geometry">
            <mxPoint x="-180" y="570" as="sourcePoint" />
            <mxPoint x="-20" y="570" as="targetPoint" />
          </mxGeometry>
        </mxCell>
        <mxCell id="WzGFnHPqga62-5LOLE94-39" value="" style="endArrow=none;html=1;rounded=0;exitX=1;exitY=0.5;exitDx=0;exitDy=0;entryX=0;entryY=0;entryDx=0;entryDy=0;" edge="1" parent="1" source="WzGFnHPqga62-5LOLE94-35" target="WzGFnHPqga62-5LOLE94-29">
          <mxGeometry relative="1" as="geometry">
            <mxPoint x="-180" y="570" as="sourcePoint" />
            <mxPoint x="-20" y="570" as="targetPoint" />
          </mxGeometry>
        </mxCell>
        <mxCell id="WzGFnHPqga62-5LOLE94-40" value="" style="endArrow=none;html=1;rounded=0;entryX=0;entryY=0.5;entryDx=0;entryDy=0;exitX=1;exitY=0;exitDx=0;exitDy=0;" edge="1" parent="1" source="WzGFnHPqga62-5LOLE94-29" target="WzGFnHPqga62-5LOLE94-32">
          <mxGeometry relative="1" as="geometry">
            <mxPoint x="-180" y="570" as="sourcePoint" />
            <mxPoint x="-20" y="570" as="targetPoint" />
          </mxGeometry>
        </mxCell>
        <mxCell id="WzGFnHPqga62-5LOLE94-41" value="" style="endArrow=none;html=1;rounded=0;entryX=0.25;entryY=1;entryDx=0;entryDy=0;exitX=0.5;exitY=0;exitDx=0;exitDy=0;" edge="1" parent="1" source="WzGFnHPqga62-5LOLE94-30" target="WzGFnHPqga62-5LOLE94-29">
          <mxGeometry relative="1" as="geometry">
            <mxPoint x="-180" y="570" as="sourcePoint" />
            <mxPoint x="-20" y="570" as="targetPoint" />
          </mxGeometry>
        </mxCell>
        <mxCell id="WzGFnHPqga62-5LOLE94-42" value="" style="endArrow=none;html=1;rounded=0;entryX=0.75;entryY=1;entryDx=0;entryDy=0;exitX=0.5;exitY=0;exitDx=0;exitDy=0;" edge="1" parent="1" source="WzGFnHPqga62-5LOLE94-36" target="WzGFnHPqga62-5LOLE94-29">
          <mxGeometry relative="1" as="geometry">
            <mxPoint x="-180" y="570" as="sourcePoint" />
            <mxPoint x="-20" y="570" as="targetPoint" />
          </mxGeometry>
        </mxCell>
        <mxCell id="WzGFnHPqga62-5LOLE94-44" style="edgeStyle=orthogonalEdgeStyle;rounded=0;orthogonalLoop=1;jettySize=auto;html=1;exitX=0.5;exitY=0;exitDx=0;exitDy=0;entryX=0.5;entryY=1;entryDx=0;entryDy=0;endArrow=none;endFill=0;" edge="1" parent="1" source="WzGFnHPqga62-5LOLE94-45" target="WzGFnHPqga62-5LOLE94-49">
          <mxGeometry relative="1" as="geometry" />
        </mxCell>
        <mxCell id="WzGFnHPqga62-5LOLE94-45" value="ARTICLE" style="whiteSpace=wrap;html=1;align=center;" vertex="1" parent="1">
          <mxGeometry x="-44" y="595" width="136" height="40" as="geometry" />
        </mxCell>
        <mxCell id="WzGFnHPqga62-5LOLE94-46" value="DATE" style="ellipse;whiteSpace=wrap;html=1;align=center;" vertex="1" parent="1">
          <mxGeometry x="-150" y="660" width="100" height="40" as="geometry" />
        </mxCell>
        <mxCell id="WzGFnHPqga62-5LOLE94-47" value="CONTENT" style="ellipse;whiteSpace=wrap;html=1;align=center;" vertex="1" parent="1">
          <mxGeometry x="60" y="475" width="100" height="40" as="geometry" />
        </mxCell>
        <mxCell id="WzGFnHPqga62-5LOLE94-48" value="INIT_IMAGE" style="ellipse;whiteSpace=wrap;html=1;align=center;" vertex="1" parent="1">
          <mxGeometry x="124" y="525" width="100" height="40" as="geometry" />
        </mxCell>
        <mxCell id="WzGFnHPqga62-5LOLE94-49" value="DESCRIPTION" style="ellipse;whiteSpace=wrap;html=1;align=center;" vertex="1" parent="1">
          <mxGeometry x="-26" y="515" width="100" height="40" as="geometry" />
        </mxCell>
        <mxCell id="WzGFnHPqga62-5LOLE94-50" value="TITLE" style="ellipse;whiteSpace=wrap;html=1;align=center;" vertex="1" parent="1">
          <mxGeometry x="-106" y="475" width="100" height="40" as="geometry" />
        </mxCell>
        <mxCell id="WzGFnHPqga62-5LOLE94-51" value="ID" style="ellipse;whiteSpace=wrap;html=1;align=center;fontStyle=4;" vertex="1" parent="1">
          <mxGeometry x="-176" y="525" width="100" height="40" as="geometry" />
        </mxCell>
        <mxCell id="WzGFnHPqga62-5LOLE94-52" value="LINK" style="ellipse;whiteSpace=wrap;html=1;align=center;" vertex="1" parent="1">
          <mxGeometry x="-44" y="660" width="100" height="40" as="geometry" />
        </mxCell>
        <mxCell id="WzGFnHPqga62-5LOLE94-53" value="" style="endArrow=none;html=1;rounded=0;exitX=0.5;exitY=1;exitDx=0;exitDy=0;entryX=0.25;entryY=0;entryDx=0;entryDy=0;" edge="1" parent="1" source="WzGFnHPqga62-5LOLE94-50" target="WzGFnHPqga62-5LOLE94-45">
          <mxGeometry relative="1" as="geometry">
            <mxPoint x="-180" y="815" as="sourcePoint" />
            <mxPoint x="-20" y="815" as="targetPoint" />
          </mxGeometry>
        </mxCell>
        <mxCell id="WzGFnHPqga62-5LOLE94-54" value="" style="endArrow=none;html=1;rounded=0;entryX=0.5;entryY=1;entryDx=0;entryDy=0;exitX=0.75;exitY=0;exitDx=0;exitDy=0;" edge="1" parent="1" source="WzGFnHPqga62-5LOLE94-45" target="WzGFnHPqga62-5LOLE94-47">
          <mxGeometry relative="1" as="geometry">
            <mxPoint x="-180" y="815" as="sourcePoint" />
            <mxPoint x="-20" y="815" as="targetPoint" />
          </mxGeometry>
        </mxCell>
        <mxCell id="WzGFnHPqga62-5LOLE94-55" value="" style="endArrow=none;html=1;rounded=0;exitX=1;exitY=0.5;exitDx=0;exitDy=0;entryX=0;entryY=0;entryDx=0;entryDy=0;" edge="1" parent="1" source="WzGFnHPqga62-5LOLE94-51" target="WzGFnHPqga62-5LOLE94-45">
          <mxGeometry relative="1" as="geometry">
            <mxPoint x="-180" y="815" as="sourcePoint" />
            <mxPoint x="-20" y="815" as="targetPoint" />
          </mxGeometry>
        </mxCell>
        <mxCell id="WzGFnHPqga62-5LOLE94-56" value="" style="endArrow=none;html=1;rounded=0;entryX=0;entryY=0.5;entryDx=0;entryDy=0;exitX=1;exitY=0;exitDx=0;exitDy=0;" edge="1" parent="1" source="WzGFnHPqga62-5LOLE94-45" target="WzGFnHPqga62-5LOLE94-48">
          <mxGeometry relative="1" as="geometry">
            <mxPoint x="-180" y="815" as="sourcePoint" />
            <mxPoint x="-20" y="815" as="targetPoint" />
          </mxGeometry>
        </mxCell>
        <mxCell id="WzGFnHPqga62-5LOLE94-57" value="" style="endArrow=none;html=1;rounded=0;entryX=0.25;entryY=1;entryDx=0;entryDy=0;exitX=0.5;exitY=0;exitDx=0;exitDy=0;" edge="1" parent="1" source="WzGFnHPqga62-5LOLE94-46" target="WzGFnHPqga62-5LOLE94-45">
          <mxGeometry relative="1" as="geometry">
            <mxPoint x="-180" y="815" as="sourcePoint" />
            <mxPoint x="-20" y="815" as="targetPoint" />
          </mxGeometry>
        </mxCell>
        <mxCell id="WzGFnHPqga62-5LOLE94-58" value="" style="endArrow=none;html=1;rounded=0;entryX=0.75;entryY=1;entryDx=0;entryDy=0;exitX=0.5;exitY=0;exitDx=0;exitDy=0;" edge="1" parent="1" source="WzGFnHPqga62-5LOLE94-52" target="WzGFnHPqga62-5LOLE94-45">
          <mxGeometry relative="1" as="geometry">
            <mxPoint x="-180" y="815" as="sourcePoint" />
            <mxPoint x="-20" y="815" as="targetPoint" />
          </mxGeometry>
        </mxCell>
        <mxCell id="WzGFnHPqga62-5LOLE94-59" style="edgeStyle=orthogonalEdgeStyle;rounded=0;orthogonalLoop=1;jettySize=auto;html=1;exitX=0.5;exitY=0;exitDx=0;exitDy=0;entryX=0.5;entryY=1;entryDx=0;entryDy=0;endArrow=none;endFill=0;" edge="1" parent="1" source="WzGFnHPqga62-5LOLE94-60" target="WzGFnHPqga62-5LOLE94-64">
          <mxGeometry relative="1" as="geometry" />
        </mxCell>
        <mxCell id="WzGFnHPqga62-5LOLE94-60" value="CERTIFICATION" style="whiteSpace=wrap;html=1;align=center;" vertex="1" parent="1">
          <mxGeometry x="1586" y="20" width="136" height="40" as="geometry" />
        </mxCell>
        <mxCell id="WzGFnHPqga62-5LOLE94-61" value="DATE" style="ellipse;whiteSpace=wrap;html=1;align=center;" vertex="1" parent="1">
          <mxGeometry x="1554" y="80" width="100" height="40" as="geometry" />
        </mxCell>
        <mxCell id="WzGFnHPqga62-5LOLE94-63" value="INSTITUTION" style="ellipse;whiteSpace=wrap;html=1;align=center;" vertex="1" parent="1">
          <mxGeometry x="1710" y="-60" width="100" height="40" as="geometry" />
        </mxCell>
        <mxCell id="WzGFnHPqga62-5LOLE94-64" value="TITLE" style="ellipse;whiteSpace=wrap;html=1;align=center;" vertex="1" parent="1">
          <mxGeometry x="1604" y="-60" width="100" height="40" as="geometry" />
        </mxCell>
        <mxCell id="WzGFnHPqga62-5LOLE94-66" value="ID" style="ellipse;whiteSpace=wrap;html=1;align=center;fontStyle=4;" vertex="1" parent="1">
          <mxGeometry x="1500" y="-60" width="100" height="40" as="geometry" />
        </mxCell>
        <mxCell id="WzGFnHPqga62-5LOLE94-67" value="LINK" style="ellipse;whiteSpace=wrap;html=1;align=center;" vertex="1" parent="1">
          <mxGeometry x="1654" y="80" width="100" height="40" as="geometry" />
        </mxCell>
        <mxCell id="WzGFnHPqga62-5LOLE94-70" value="" style="endArrow=none;html=1;rounded=0;exitX=0.5;exitY=1;exitDx=0;exitDy=0;entryX=0;entryY=0;entryDx=0;entryDy=0;" edge="1" parent="1" source="WzGFnHPqga62-5LOLE94-66" target="WzGFnHPqga62-5LOLE94-60">
          <mxGeometry relative="1" as="geometry">
            <mxPoint x="1450" y="240" as="sourcePoint" />
            <mxPoint x="1610" y="240" as="targetPoint" />
          </mxGeometry>
        </mxCell>
        <mxCell id="WzGFnHPqga62-5LOLE94-71" value="" style="endArrow=none;html=1;rounded=0;entryX=0.5;entryY=1;entryDx=0;entryDy=0;exitX=1;exitY=0;exitDx=0;exitDy=0;" edge="1" parent="1" source="WzGFnHPqga62-5LOLE94-60" target="WzGFnHPqga62-5LOLE94-63">
          <mxGeometry relative="1" as="geometry">
            <mxPoint x="1450" y="240" as="sourcePoint" />
            <mxPoint x="1610" y="240" as="targetPoint" />
          </mxGeometry>
        </mxCell>
        <mxCell id="WzGFnHPqga62-5LOLE94-72" value="" style="endArrow=none;html=1;rounded=0;entryX=0.25;entryY=1;entryDx=0;entryDy=0;exitX=0.5;exitY=0;exitDx=0;exitDy=0;" edge="1" parent="1" source="WzGFnHPqga62-5LOLE94-61" target="WzGFnHPqga62-5LOLE94-60">
          <mxGeometry relative="1" as="geometry">
            <mxPoint x="1450" y="240" as="sourcePoint" />
            <mxPoint x="1610" y="240" as="targetPoint" />
          </mxGeometry>
        </mxCell>
        <mxCell id="WzGFnHPqga62-5LOLE94-73" value="" style="endArrow=none;html=1;rounded=0;entryX=0.75;entryY=1;entryDx=0;entryDy=0;exitX=0.5;exitY=0;exitDx=0;exitDy=0;" edge="1" parent="1" source="WzGFnHPqga62-5LOLE94-67" target="WzGFnHPqga62-5LOLE94-60">
          <mxGeometry relative="1" as="geometry">
            <mxPoint x="1450" y="240" as="sourcePoint" />
            <mxPoint x="1610" y="240" as="targetPoint" />
          </mxGeometry>
        </mxCell>
        <mxCell id="WzGFnHPqga62-5LOLE94-74" style="edgeStyle=orthogonalEdgeStyle;rounded=0;orthogonalLoop=1;jettySize=auto;html=1;exitX=0.5;exitY=0;exitDx=0;exitDy=0;entryX=0.5;entryY=1;entryDx=0;entryDy=0;endArrow=none;endFill=0;" edge="1" parent="1" source="WzGFnHPqga62-5LOLE94-75" target="WzGFnHPqga62-5LOLE94-79">
          <mxGeometry relative="1" as="geometry" />
        </mxCell>
        <mxCell id="WzGFnHPqga62-5LOLE94-75" value="POST" style="whiteSpace=wrap;html=1;align=center;" vertex="1" parent="1">
          <mxGeometry x="-44" y="840" width="136" height="40" as="geometry" />
        </mxCell>
        <mxCell id="WzGFnHPqga62-5LOLE94-76" value="DATE" style="ellipse;whiteSpace=wrap;html=1;align=center;" vertex="1" parent="1">
          <mxGeometry x="-76" y="900" width="100" height="40" as="geometry" />
        </mxCell>
        <mxCell id="WzGFnHPqga62-5LOLE94-77" value="CONTENT" style="ellipse;whiteSpace=wrap;html=1;align=center;" vertex="1" parent="1">
          <mxGeometry x="60" y="720" width="100" height="40" as="geometry" />
        </mxCell>
        <mxCell id="WzGFnHPqga62-5LOLE94-78" value="INIT_IMAGE" style="ellipse;whiteSpace=wrap;html=1;align=center;" vertex="1" parent="1">
          <mxGeometry x="124" y="770" width="100" height="40" as="geometry" />
        </mxCell>
        <mxCell id="WzGFnHPqga62-5LOLE94-79" value="DESCRIPTION" style="ellipse;whiteSpace=wrap;html=1;align=center;" vertex="1" parent="1">
          <mxGeometry x="-26" y="760" width="100" height="40" as="geometry" />
        </mxCell>
        <mxCell id="WzGFnHPqga62-5LOLE94-80" value="TITLE" style="ellipse;whiteSpace=wrap;html=1;align=center;" vertex="1" parent="1">
          <mxGeometry x="-106" y="720" width="100" height="40" as="geometry" />
        </mxCell>
        <mxCell id="WzGFnHPqga62-5LOLE94-81" value="ID" style="ellipse;whiteSpace=wrap;html=1;align=center;fontStyle=4;" vertex="1" parent="1">
          <mxGeometry x="-176" y="770" width="100" height="40" as="geometry" />
        </mxCell>
        <mxCell id="WzGFnHPqga62-5LOLE94-83" value="" style="endArrow=none;html=1;rounded=0;exitX=0.5;exitY=1;exitDx=0;exitDy=0;entryX=0.25;entryY=0;entryDx=0;entryDy=0;" edge="1" parent="1" source="WzGFnHPqga62-5LOLE94-80" target="WzGFnHPqga62-5LOLE94-75">
          <mxGeometry relative="1" as="geometry">
            <mxPoint x="-180" y="1060" as="sourcePoint" />
            <mxPoint x="-20" y="1060" as="targetPoint" />
          </mxGeometry>
        </mxCell>
        <mxCell id="WzGFnHPqga62-5LOLE94-84" value="" style="endArrow=none;html=1;rounded=0;entryX=0.5;entryY=1;entryDx=0;entryDy=0;exitX=0.75;exitY=0;exitDx=0;exitDy=0;" edge="1" parent="1" source="WzGFnHPqga62-5LOLE94-75" target="WzGFnHPqga62-5LOLE94-77">
          <mxGeometry relative="1" as="geometry">
            <mxPoint x="-180" y="1060" as="sourcePoint" />
            <mxPoint x="-20" y="1060" as="targetPoint" />
          </mxGeometry>
        </mxCell>
        <mxCell id="WzGFnHPqga62-5LOLE94-85" value="" style="endArrow=none;html=1;rounded=0;exitX=1;exitY=0.5;exitDx=0;exitDy=0;entryX=0;entryY=0;entryDx=0;entryDy=0;" edge="1" parent="1" source="WzGFnHPqga62-5LOLE94-81" target="WzGFnHPqga62-5LOLE94-75">
          <mxGeometry relative="1" as="geometry">
            <mxPoint x="-180" y="1060" as="sourcePoint" />
            <mxPoint x="-20" y="1060" as="targetPoint" />
          </mxGeometry>
        </mxCell>
        <mxCell id="WzGFnHPqga62-5LOLE94-86" value="" style="endArrow=none;html=1;rounded=0;entryX=0;entryY=0.5;entryDx=0;entryDy=0;exitX=1;exitY=0;exitDx=0;exitDy=0;" edge="1" parent="1" source="WzGFnHPqga62-5LOLE94-75" target="WzGFnHPqga62-5LOLE94-78">
          <mxGeometry relative="1" as="geometry">
            <mxPoint x="-180" y="1060" as="sourcePoint" />
            <mxPoint x="-20" y="1060" as="targetPoint" />
          </mxGeometry>
        </mxCell>
        <mxCell id="WzGFnHPqga62-5LOLE94-87" value="" style="endArrow=none;html=1;rounded=0;entryX=0.25;entryY=1;entryDx=0;entryDy=0;exitX=0.5;exitY=0;exitDx=0;exitDy=0;" edge="1" parent="1" source="WzGFnHPqga62-5LOLE94-76" target="WzGFnHPqga62-5LOLE94-75">
          <mxGeometry relative="1" as="geometry">
            <mxPoint x="-180" y="1060" as="sourcePoint" />
            <mxPoint x="-20" y="1060" as="targetPoint" />
          </mxGeometry>
        </mxCell>
        <mxCell id="PPZBpviqJP9HBHw-S2R_-12" style="edgeStyle=orthogonalEdgeStyle;rounded=0;orthogonalLoop=1;jettySize=auto;html=1;exitX=0.5;exitY=0;exitDx=0;exitDy=0;entryX=0.5;entryY=1;entryDx=0;entryDy=0;endArrow=none;endFill=0;" edge="1" parent="1" source="PPZBpviqJP9HBHw-S2R_-13" target="PPZBpviqJP9HBHw-S2R_-17">
          <mxGeometry relative="1" as="geometry" />
        </mxCell>
        <mxCell id="PPZBpviqJP9HBHw-S2R_-13" value="EDUCATION" style="whiteSpace=wrap;html=1;align=center;" vertex="1" parent="1">
          <mxGeometry x="1592" y="290" width="136" height="40" as="geometry" />
        </mxCell>
        <mxCell id="PPZBpviqJP9HBHw-S2R_-14" value="INITIAL_DATE" style="ellipse;whiteSpace=wrap;html=1;align=center;" vertex="1" parent="1">
          <mxGeometry x="1560" y="350" width="100" height="40" as="geometry" />
        </mxCell>
        <mxCell id="PPZBpviqJP9HBHw-S2R_-15" value="AVERAGE" style="ellipse;whiteSpace=wrap;html=1;align=center;" vertex="1" parent="1">
          <mxGeometry x="1696" y="170" width="100" height="40" as="geometry" />
        </mxCell>
        <mxCell id="PPZBpviqJP9HBHw-S2R_-16" value="AREA" style="ellipse;whiteSpace=wrap;html=1;align=center;" vertex="1" parent="1">
          <mxGeometry x="1760" y="220" width="100" height="40" as="geometry" />
        </mxCell>
        <mxCell id="PPZBpviqJP9HBHw-S2R_-17" value="INSTITUTION" style="ellipse;whiteSpace=wrap;html=1;align=center;" vertex="1" parent="1">
          <mxGeometry x="1610" y="210" width="100" height="40" as="geometry" />
        </mxCell>
        <mxCell id="PPZBpviqJP9HBHw-S2R_-18" value="TITLE" style="ellipse;whiteSpace=wrap;html=1;align=center;" vertex="1" parent="1">
          <mxGeometry x="1530" y="170" width="100" height="40" as="geometry" />
        </mxCell>
        <mxCell id="PPZBpviqJP9HBHw-S2R_-19" value="ID" style="ellipse;whiteSpace=wrap;html=1;align=center;fontStyle=4;" vertex="1" parent="1">
          <mxGeometry x="1460" y="220" width="100" height="40" as="geometry" />
        </mxCell>
        <mxCell id="PPZBpviqJP9HBHw-S2R_-20" value="FINAL_DATE" style="ellipse;whiteSpace=wrap;html=1;align=center;" vertex="1" parent="1">
          <mxGeometry x="1660" y="350" width="100" height="40" as="geometry" />
        </mxCell>
        <mxCell id="PPZBpviqJP9HBHw-S2R_-21" value="" style="endArrow=none;html=1;rounded=0;exitX=0.5;exitY=1;exitDx=0;exitDy=0;entryX=0.25;entryY=0;entryDx=0;entryDy=0;" edge="1" parent="1" source="PPZBpviqJP9HBHw-S2R_-18" target="PPZBpviqJP9HBHw-S2R_-13">
          <mxGeometry relative="1" as="geometry">
            <mxPoint x="1456" y="510" as="sourcePoint" />
            <mxPoint x="1616" y="510" as="targetPoint" />
          </mxGeometry>
        </mxCell>
        <mxCell id="PPZBpviqJP9HBHw-S2R_-22" value="" style="endArrow=none;html=1;rounded=0;entryX=0.5;entryY=1;entryDx=0;entryDy=0;exitX=0.75;exitY=0;exitDx=0;exitDy=0;" edge="1" parent="1" source="PPZBpviqJP9HBHw-S2R_-13" target="PPZBpviqJP9HBHw-S2R_-15">
          <mxGeometry relative="1" as="geometry">
            <mxPoint x="1456" y="510" as="sourcePoint" />
            <mxPoint x="1616" y="510" as="targetPoint" />
          </mxGeometry>
        </mxCell>
        <mxCell id="PPZBpviqJP9HBHw-S2R_-23" value="" style="endArrow=none;html=1;rounded=0;exitX=1;exitY=0.5;exitDx=0;exitDy=0;entryX=0;entryY=0;entryDx=0;entryDy=0;" edge="1" parent="1" source="PPZBpviqJP9HBHw-S2R_-19" target="PPZBpviqJP9HBHw-S2R_-13">
          <mxGeometry relative="1" as="geometry">
            <mxPoint x="1456" y="510" as="sourcePoint" />
            <mxPoint x="1616" y="510" as="targetPoint" />
          </mxGeometry>
        </mxCell>
        <mxCell id="PPZBpviqJP9HBHw-S2R_-24" value="" style="endArrow=none;html=1;rounded=0;entryX=0;entryY=0.5;entryDx=0;entryDy=0;exitX=1;exitY=0;exitDx=0;exitDy=0;" edge="1" parent="1" source="PPZBpviqJP9HBHw-S2R_-13" target="PPZBpviqJP9HBHw-S2R_-16">
          <mxGeometry relative="1" as="geometry">
            <mxPoint x="1456" y="510" as="sourcePoint" />
            <mxPoint x="1616" y="510" as="targetPoint" />
          </mxGeometry>
        </mxCell>
        <mxCell id="PPZBpviqJP9HBHw-S2R_-25" value="" style="endArrow=none;html=1;rounded=0;entryX=0.25;entryY=1;entryDx=0;entryDy=0;exitX=0.5;exitY=0;exitDx=0;exitDy=0;" edge="1" parent="1" source="PPZBpviqJP9HBHw-S2R_-14" target="PPZBpviqJP9HBHw-S2R_-13">
          <mxGeometry relative="1" as="geometry">
            <mxPoint x="1456" y="510" as="sourcePoint" />
            <mxPoint x="1616" y="510" as="targetPoint" />
          </mxGeometry>
        </mxCell>
        <mxCell id="PPZBpviqJP9HBHw-S2R_-26" value="" style="endArrow=none;html=1;rounded=0;entryX=0.75;entryY=1;entryDx=0;entryDy=0;exitX=0.5;exitY=0;exitDx=0;exitDy=0;" edge="1" parent="1" source="PPZBpviqJP9HBHw-S2R_-20" target="PPZBpviqJP9HBHw-S2R_-13">
          <mxGeometry relative="1" as="geometry">
            <mxPoint x="1456" y="510" as="sourcePoint" />
            <mxPoint x="1616" y="510" as="targetPoint" />
          </mxGeometry>
        </mxCell>
        <mxCell id="PPZBpviqJP9HBHw-S2R_-27" style="edgeStyle=orthogonalEdgeStyle;rounded=0;orthogonalLoop=1;jettySize=auto;html=1;exitX=0.5;exitY=0;exitDx=0;exitDy=0;entryX=0.5;entryY=1;entryDx=0;entryDy=0;endArrow=none;endFill=0;" edge="1" parent="1" source="PPZBpviqJP9HBHw-S2R_-28" target="PPZBpviqJP9HBHw-S2R_-32">
          <mxGeometry relative="1" as="geometry" />
        </mxCell>
        <mxCell id="PPZBpviqJP9HBHw-S2R_-28" value="WORK_EXPERIENCE" style="whiteSpace=wrap;html=1;align=center;" vertex="1" parent="1">
          <mxGeometry x="1592" y="520" width="136" height="40" as="geometry" />
        </mxCell>
        <mxCell id="PPZBpviqJP9HBHw-S2R_-29" value="ACTIVITIES" style="ellipse;whiteSpace=wrap;html=1;align=center;" vertex="1" parent="1">
          <mxGeometry x="1560" y="580" width="100" height="40" as="geometry" />
        </mxCell>
        <mxCell id="PPZBpviqJP9HBHw-S2R_-30" value="INITIAL_DATE" style="ellipse;whiteSpace=wrap;html=1;align=center;" vertex="1" parent="1">
          <mxGeometry x="1696" y="400" width="100" height="40" as="geometry" />
        </mxCell>
        <mxCell id="PPZBpviqJP9HBHw-S2R_-31" value="FINAL_DATE" style="ellipse;whiteSpace=wrap;html=1;align=center;" vertex="1" parent="1">
          <mxGeometry x="1760" y="450" width="100" height="40" as="geometry" />
        </mxCell>
        <mxCell id="PPZBpviqJP9HBHw-S2R_-32" value="SITE" style="ellipse;whiteSpace=wrap;html=1;align=center;" vertex="1" parent="1">
          <mxGeometry x="1610" y="440" width="100" height="40" as="geometry" />
        </mxCell>
        <mxCell id="PPZBpviqJP9HBHw-S2R_-33" value="TITLE" style="ellipse;whiteSpace=wrap;html=1;align=center;" vertex="1" parent="1">
          <mxGeometry x="1530" y="400" width="100" height="40" as="geometry" />
        </mxCell>
        <mxCell id="PPZBpviqJP9HBHw-S2R_-34" value="ID" style="ellipse;whiteSpace=wrap;html=1;align=center;fontStyle=4;" vertex="1" parent="1">
          <mxGeometry x="1460" y="450" width="100" height="40" as="geometry" />
        </mxCell>
        <mxCell id="PPZBpviqJP9HBHw-S2R_-36" value="" style="endArrow=none;html=1;rounded=0;exitX=0.5;exitY=1;exitDx=0;exitDy=0;entryX=0.25;entryY=0;entryDx=0;entryDy=0;" edge="1" parent="1" source="PPZBpviqJP9HBHw-S2R_-33" target="PPZBpviqJP9HBHw-S2R_-28">
          <mxGeometry relative="1" as="geometry">
            <mxPoint x="1456" y="740" as="sourcePoint" />
            <mxPoint x="1616" y="740" as="targetPoint" />
          </mxGeometry>
        </mxCell>
        <mxCell id="PPZBpviqJP9HBHw-S2R_-37" value="" style="endArrow=none;html=1;rounded=0;entryX=0.5;entryY=1;entryDx=0;entryDy=0;exitX=0.75;exitY=0;exitDx=0;exitDy=0;" edge="1" parent="1" source="PPZBpviqJP9HBHw-S2R_-28" target="PPZBpviqJP9HBHw-S2R_-30">
          <mxGeometry relative="1" as="geometry">
            <mxPoint x="1456" y="740" as="sourcePoint" />
            <mxPoint x="1616" y="740" as="targetPoint" />
          </mxGeometry>
        </mxCell>
        <mxCell id="PPZBpviqJP9HBHw-S2R_-38" value="" style="endArrow=none;html=1;rounded=0;exitX=1;exitY=0.5;exitDx=0;exitDy=0;entryX=0;entryY=0;entryDx=0;entryDy=0;" edge="1" parent="1" source="PPZBpviqJP9HBHw-S2R_-34" target="PPZBpviqJP9HBHw-S2R_-28">
          <mxGeometry relative="1" as="geometry">
            <mxPoint x="1456" y="740" as="sourcePoint" />
            <mxPoint x="1616" y="740" as="targetPoint" />
          </mxGeometry>
        </mxCell>
        <mxCell id="PPZBpviqJP9HBHw-S2R_-39" value="" style="endArrow=none;html=1;rounded=0;entryX=0;entryY=0.5;entryDx=0;entryDy=0;exitX=1;exitY=0;exitDx=0;exitDy=0;" edge="1" parent="1" source="PPZBpviqJP9HBHw-S2R_-28" target="PPZBpviqJP9HBHw-S2R_-31">
          <mxGeometry relative="1" as="geometry">
            <mxPoint x="1456" y="740" as="sourcePoint" />
            <mxPoint x="1616" y="740" as="targetPoint" />
          </mxGeometry>
        </mxCell>
        <mxCell id="PPZBpviqJP9HBHw-S2R_-40" value="" style="endArrow=none;html=1;rounded=0;entryX=0.25;entryY=1;entryDx=0;entryDy=0;exitX=0.5;exitY=0;exitDx=0;exitDy=0;" edge="1" parent="1" source="PPZBpviqJP9HBHw-S2R_-29" target="PPZBpviqJP9HBHw-S2R_-28">
          <mxGeometry relative="1" as="geometry">
            <mxPoint x="1456" y="740" as="sourcePoint" />
            <mxPoint x="1616" y="740" as="targetPoint" />
          </mxGeometry>
        </mxCell>
        <mxCell id="PPZBpviqJP9HBHw-S2R_-43" value="ABOUT" style="whiteSpace=wrap;html=1;align=center;" vertex="1" parent="1">
          <mxGeometry x="1592" y="760" width="136" height="40" as="geometry" />
        </mxCell>
        <mxCell id="PPZBpviqJP9HBHw-S2R_-46" value="CONTENT" style="ellipse;whiteSpace=wrap;html=1;align=center;" vertex="1" parent="1">
          <mxGeometry x="1680" y="690" width="100" height="40" as="geometry" />
        </mxCell>
        <mxCell id="PPZBpviqJP9HBHw-S2R_-49" value="ID" style="ellipse;whiteSpace=wrap;html=1;align=center;fontStyle=4;" vertex="1" parent="1">
          <mxGeometry x="1540" y="700" width="100" height="40" as="geometry" />
        </mxCell>
        <mxCell id="PPZBpviqJP9HBHw-S2R_-53" value="" style="endArrow=none;html=1;rounded=0;exitX=0.5;exitY=1;exitDx=0;exitDy=0;entryX=0;entryY=0;entryDx=0;entryDy=0;" edge="1" parent="1" source="PPZBpviqJP9HBHw-S2R_-49" target="PPZBpviqJP9HBHw-S2R_-43">
          <mxGeometry relative="1" as="geometry">
            <mxPoint x="1456" y="980" as="sourcePoint" />
            <mxPoint x="1616" y="980" as="targetPoint" />
          </mxGeometry>
        </mxCell>
        <mxCell id="PPZBpviqJP9HBHw-S2R_-54" value="" style="endArrow=none;html=1;rounded=0;entryX=0.5;entryY=1;entryDx=0;entryDy=0;exitX=1;exitY=0;exitDx=0;exitDy=0;" edge="1" parent="1" source="PPZBpviqJP9HBHw-S2R_-43" target="PPZBpviqJP9HBHw-S2R_-46">
          <mxGeometry relative="1" as="geometry">
            <mxPoint x="1456" y="980" as="sourcePoint" />
            <mxPoint x="1616" y="980" as="targetPoint" />
          </mxGeometry>
        </mxCell>
        <mxCell id="PPZBpviqJP9HBHw-S2R_-57" value="IDIOM" style="whiteSpace=wrap;html=1;align=center;" vertex="1" parent="1">
          <mxGeometry x="1050" y="450" width="100" height="40" as="geometry" />
        </mxCell>
        <mxCell id="PPZBpviqJP9HBHw-S2R_-58" value="IDIOM" style="ellipse;whiteSpace=wrap;html=1;align=center;" vertex="1" parent="1">
          <mxGeometry x="1120" y="390" width="100" height="40" as="geometry" />
        </mxCell>
        <mxCell id="PPZBpviqJP9HBHw-S2R_-59" value="IDIOM" style="ellipse;whiteSpace=wrap;html=1;align=center;fontStyle=4;" vertex="1" parent="1">
          <mxGeometry x="990" y="390" width="100" height="40" as="geometry" />
        </mxCell>
        <mxCell id="PPZBpviqJP9HBHw-S2R_-61" value="" style="endArrow=none;html=1;rounded=0;exitX=0.5;exitY=1;exitDx=0;exitDy=0;entryX=0.75;entryY=0;entryDx=0;entryDy=0;" edge="1" parent="1" source="PPZBpviqJP9HBHw-S2R_-58" target="PPZBpviqJP9HBHw-S2R_-57">
          <mxGeometry relative="1" as="geometry">
            <mxPoint x="1500" y="460" as="sourcePoint" />
            <mxPoint x="1660" y="460" as="targetPoint" />
          </mxGeometry>
        </mxCell>
        <mxCell id="PPZBpviqJP9HBHw-S2R_-62" value="" style="endArrow=none;html=1;rounded=0;exitX=0.5;exitY=1;exitDx=0;exitDy=0;entryX=0.25;entryY=0;entryDx=0;entryDy=0;" edge="1" parent="1" source="PPZBpviqJP9HBHw-S2R_-59" target="PPZBpviqJP9HBHw-S2R_-57">
          <mxGeometry relative="1" as="geometry">
            <mxPoint x="1500" y="460" as="sourcePoint" />
            <mxPoint x="1660" y="460" as="targetPoint" />
          </mxGeometry>
        </mxCell>
        <mxCell id="PPZBpviqJP9HBHw-S2R_-205" style="edgeStyle=orthogonalEdgeStyle;rounded=0;orthogonalLoop=1;jettySize=auto;html=1;exitX=1;exitY=0.5;exitDx=0;exitDy=0;entryX=0;entryY=0.5;entryDx=0;entryDy=0;endArrow=none;endFill=0;" edge="1" parent="1" source="PPZBpviqJP9HBHw-S2R_-63" target="PPZBpviqJP9HBHw-S2R_-190">
          <mxGeometry relative="1" as="geometry" />
        </mxCell>
        <mxCell id="PPZBpviqJP9HBHw-S2R_-63" value="TAG" style="whiteSpace=wrap;html=1;align=center;" vertex="1" parent="1">
          <mxGeometry x="254" y="-372.75" width="100" height="40" as="geometry" />
        </mxCell>
        <mxCell id="PPZBpviqJP9HBHw-S2R_-207" style="edgeStyle=orthogonalEdgeStyle;rounded=0;orthogonalLoop=1;jettySize=auto;html=1;exitX=0;exitY=1;exitDx=0;exitDy=0;entryX=0.5;entryY=1;entryDx=0;entryDy=0;shape=link;" edge="1" parent="1" source="PPZBpviqJP9HBHw-S2R_-65" target="PPZBpviqJP9HBHw-S2R_-206">
          <mxGeometry relative="1" as="geometry">
            <mxPoint x="-1720" y="550" as="targetPoint" />
          </mxGeometry>
        </mxCell>
        <mxCell id="PPZBpviqJP9HBHw-S2R_-65" value="AUTHOR" style="whiteSpace=wrap;html=1;align=center;" vertex="1" parent="1">
          <mxGeometry x="-1240" y="715" width="100" height="40" as="geometry" />
        </mxCell>
        <mxCell id="PPZBpviqJP9HBHw-S2R_-66" value="REFERENCE" style="whiteSpace=wrap;html=1;align=center;" vertex="1" parent="1">
          <mxGeometry x="-1415" y="295" width="100" height="40" as="geometry" />
        </mxCell>
        <mxCell id="PPZBpviqJP9HBHw-S2R_-67" value="NAME" style="ellipse;whiteSpace=wrap;html=1;align=center;" vertex="1" parent="1">
          <mxGeometry x="314" y="-442.75" width="100" height="40" as="geometry" />
        </mxCell>
        <mxCell id="PPZBpviqJP9HBHw-S2R_-68" value="ID" style="ellipse;whiteSpace=wrap;html=1;align=center;fontStyle=4;" vertex="1" parent="1">
          <mxGeometry x="194" y="-442.75" width="100" height="40" as="geometry" />
        </mxCell>
        <mxCell id="PPZBpviqJP9HBHw-S2R_-69" value="" style="endArrow=none;html=1;rounded=0;exitX=0.5;exitY=1;exitDx=0;exitDy=0;entryX=0.75;entryY=0;entryDx=0;entryDy=0;" edge="1" parent="1" source="PPZBpviqJP9HBHw-S2R_-67" target="PPZBpviqJP9HBHw-S2R_-63">
          <mxGeometry relative="1" as="geometry">
            <mxPoint x="734" y="-322.75" as="sourcePoint" />
            <mxPoint x="894" y="-322.75" as="targetPoint" />
          </mxGeometry>
        </mxCell>
        <mxCell id="PPZBpviqJP9HBHw-S2R_-70" value="" style="endArrow=none;html=1;rounded=0;exitX=0.5;exitY=1;exitDx=0;exitDy=0;entryX=0.25;entryY=0;entryDx=0;entryDy=0;" edge="1" parent="1" source="PPZBpviqJP9HBHw-S2R_-68" target="PPZBpviqJP9HBHw-S2R_-63">
          <mxGeometry relative="1" as="geometry">
            <mxPoint x="734" y="-322.75" as="sourcePoint" />
            <mxPoint x="894" y="-322.75" as="targetPoint" />
          </mxGeometry>
        </mxCell>
        <mxCell id="PPZBpviqJP9HBHw-S2R_-71" value="IMAGE" style="whiteSpace=wrap;html=1;align=center;" vertex="1" parent="1">
          <mxGeometry x="850" y="1239" width="100" height="40" as="geometry" />
        </mxCell>
        <mxCell id="PPZBpviqJP9HBHw-S2R_-72" value="URL" style="ellipse;whiteSpace=wrap;html=1;align=center;" vertex="1" parent="1">
          <mxGeometry x="910" y="1320" width="100" height="40" as="geometry" />
        </mxCell>
        <mxCell id="PPZBpviqJP9HBHw-S2R_-73" value="ID" style="ellipse;whiteSpace=wrap;html=1;align=center;fontStyle=4;" vertex="1" parent="1">
          <mxGeometry x="780" y="1330" width="100" height="40" as="geometry" />
        </mxCell>
        <mxCell id="PPZBpviqJP9HBHw-S2R_-74" value="" style="endArrow=none;html=1;rounded=0;exitX=0.5;exitY=0;exitDx=0;exitDy=0;entryX=0.75;entryY=1;entryDx=0;entryDy=0;" edge="1" parent="1" source="PPZBpviqJP9HBHw-S2R_-72" target="PPZBpviqJP9HBHw-S2R_-71">
          <mxGeometry relative="1" as="geometry">
            <mxPoint x="1330" y="1289" as="sourcePoint" />
            <mxPoint x="1490" y="1289" as="targetPoint" />
          </mxGeometry>
        </mxCell>
        <mxCell id="PPZBpviqJP9HBHw-S2R_-75" value="" style="endArrow=none;html=1;rounded=0;exitX=0.5;exitY=0;exitDx=0;exitDy=0;entryX=0.25;entryY=1;entryDx=0;entryDy=0;" edge="1" parent="1" source="PPZBpviqJP9HBHw-S2R_-73" target="PPZBpviqJP9HBHw-S2R_-71">
          <mxGeometry relative="1" as="geometry">
            <mxPoint x="1330" y="1289" as="sourcePoint" />
            <mxPoint x="1490" y="1289" as="targetPoint" />
            <Array as="points" />
          </mxGeometry>
        </mxCell>
        <mxCell id="PPZBpviqJP9HBHw-S2R_-76" value="ID" style="ellipse;whiteSpace=wrap;html=1;align=center;fontStyle=4;" vertex="1" parent="1">
          <mxGeometry x="-1370" y="715" width="100" height="40" as="geometry" />
        </mxCell>
        <mxCell id="PPZBpviqJP9HBHw-S2R_-78" value="TITLE" style="ellipse;whiteSpace=wrap;html=1;align=center;" vertex="1" parent="1">
          <mxGeometry x="-1170" y="655" width="100" height="40" as="geometry" />
        </mxCell>
        <mxCell id="PPZBpviqJP9HBHw-S2R_-79" value="NAME" style="ellipse;whiteSpace=wrap;html=1;align=center;" vertex="1" parent="1">
          <mxGeometry x="-1310" y="655" width="100" height="40" as="geometry" />
        </mxCell>
        <mxCell id="PPZBpviqJP9HBHw-S2R_-80" value="EMAIL" style="ellipse;whiteSpace=wrap;html=1;align=center;" vertex="1" parent="1">
          <mxGeometry x="-1260" y="815" width="100" height="40" as="geometry" />
        </mxCell>
        <mxCell id="PPZBpviqJP9HBHw-S2R_-81" value="URL" style="ellipse;whiteSpace=wrap;html=1;align=center;" vertex="1" parent="1">
          <mxGeometry x="-1180" y="775" width="100" height="40" as="geometry" />
        </mxCell>
        <mxCell id="PPZBpviqJP9HBHw-S2R_-82" value="" style="endArrow=none;html=1;rounded=0;exitX=0.75;exitY=0;exitDx=0;exitDy=0;entryX=0;entryY=1;entryDx=0;entryDy=0;" edge="1" parent="1" source="PPZBpviqJP9HBHw-S2R_-65" target="PPZBpviqJP9HBHw-S2R_-78">
          <mxGeometry relative="1" as="geometry">
            <mxPoint x="-1150" y="555" as="sourcePoint" />
            <mxPoint x="-990" y="555" as="targetPoint" />
          </mxGeometry>
        </mxCell>
        <mxCell id="PPZBpviqJP9HBHw-S2R_-83" value="" style="endArrow=none;html=1;rounded=0;exitX=1;exitY=1;exitDx=0;exitDy=0;entryX=0.25;entryY=0;entryDx=0;entryDy=0;" edge="1" parent="1" source="PPZBpviqJP9HBHw-S2R_-79" target="PPZBpviqJP9HBHw-S2R_-65">
          <mxGeometry relative="1" as="geometry">
            <mxPoint x="-1150" y="555" as="sourcePoint" />
            <mxPoint x="-990" y="555" as="targetPoint" />
          </mxGeometry>
        </mxCell>
        <mxCell id="PPZBpviqJP9HBHw-S2R_-84" value="" style="endArrow=none;html=1;rounded=0;exitX=1;exitY=0.5;exitDx=0;exitDy=0;entryX=0;entryY=0.5;entryDx=0;entryDy=0;" edge="1" parent="1" source="PPZBpviqJP9HBHw-S2R_-76" target="PPZBpviqJP9HBHw-S2R_-65">
          <mxGeometry relative="1" as="geometry">
            <mxPoint x="-1150" y="555" as="sourcePoint" />
            <mxPoint x="-990" y="555" as="targetPoint" />
          </mxGeometry>
        </mxCell>
        <mxCell id="PPZBpviqJP9HBHw-S2R_-85" value="" style="endArrow=none;html=1;rounded=0;exitX=0.5;exitY=0;exitDx=0;exitDy=0;entryX=0.25;entryY=1;entryDx=0;entryDy=0;" edge="1" parent="1" source="PPZBpviqJP9HBHw-S2R_-80" target="PPZBpviqJP9HBHw-S2R_-65">
          <mxGeometry relative="1" as="geometry">
            <mxPoint x="-1150" y="555" as="sourcePoint" />
            <mxPoint x="-990" y="555" as="targetPoint" />
          </mxGeometry>
        </mxCell>
        <mxCell id="PPZBpviqJP9HBHw-S2R_-86" value="" style="endArrow=none;html=1;rounded=0;exitX=0.5;exitY=0;exitDx=0;exitDy=0;entryX=0.75;entryY=1;entryDx=0;entryDy=0;" edge="1" parent="1" source="PPZBpviqJP9HBHw-S2R_-81" target="PPZBpviqJP9HBHw-S2R_-65">
          <mxGeometry relative="1" as="geometry">
            <mxPoint x="-1150" y="555" as="sourcePoint" />
            <mxPoint x="-990" y="555" as="targetPoint" />
          </mxGeometry>
        </mxCell>
        <mxCell id="PPZBpviqJP9HBHw-S2R_-87" value="ID" style="ellipse;whiteSpace=wrap;html=1;align=center;fontStyle=4;" vertex="1" parent="1">
          <mxGeometry x="-1585" y="295" width="100" height="40" as="geometry" />
        </mxCell>
        <mxCell id="PPZBpviqJP9HBHw-S2R_-88" value="TYPE" style="ellipse;whiteSpace=wrap;html=1;align=center;" vertex="1" parent="1">
          <mxGeometry x="-1515" y="235" width="100" height="40" as="geometry" />
        </mxCell>
        <mxCell id="PPZBpviqJP9HBHw-S2R_-90" value="DATE" style="ellipse;whiteSpace=wrap;html=1;align=center;" vertex="1" parent="1">
          <mxGeometry x="-1315" y="235" width="100" height="40" as="geometry" />
        </mxCell>
        <mxCell id="PPZBpviqJP9HBHw-S2R_-91" value="LOCATION" style="ellipse;whiteSpace=wrap;html=1;align=center;" vertex="1" parent="1">
          <mxGeometry x="-1315" y="365" width="100" height="40" as="geometry" />
        </mxCell>
        <mxCell id="PPZBpviqJP9HBHw-S2R_-92" value="SOURCE" style="ellipse;whiteSpace=wrap;html=1;align=center;" vertex="1" parent="1">
          <mxGeometry x="-1415" y="365" width="100" height="40" as="geometry" />
        </mxCell>
        <mxCell id="PPZBpviqJP9HBHw-S2R_-93" value="TITLE" style="ellipse;whiteSpace=wrap;html=1;align=center;" vertex="1" parent="1">
          <mxGeometry x="-1515" y="365" width="100" height="40" as="geometry" />
        </mxCell>
        <mxCell id="PPZBpviqJP9HBHw-S2R_-97" value="" style="endArrow=none;html=1;rounded=0;exitX=0.5;exitY=1;exitDx=0;exitDy=0;entryX=1;entryY=0;entryDx=0;entryDy=0;" edge="1" parent="1" source="PPZBpviqJP9HBHw-S2R_-90" target="PPZBpviqJP9HBHw-S2R_-66">
          <mxGeometry relative="1" as="geometry">
            <mxPoint x="-1295" y="505" as="sourcePoint" />
            <mxPoint x="-1135" y="505" as="targetPoint" />
          </mxGeometry>
        </mxCell>
        <mxCell id="PPZBpviqJP9HBHw-S2R_-98" value="" style="endArrow=none;html=1;rounded=0;exitX=0.5;exitY=1;exitDx=0;exitDy=0;entryX=0;entryY=0;entryDx=0;entryDy=0;" edge="1" parent="1" source="PPZBpviqJP9HBHw-S2R_-88" target="PPZBpviqJP9HBHw-S2R_-66">
          <mxGeometry relative="1" as="geometry">
            <mxPoint x="-1295" y="505" as="sourcePoint" />
            <mxPoint x="-1135" y="505" as="targetPoint" />
          </mxGeometry>
        </mxCell>
        <mxCell id="PPZBpviqJP9HBHw-S2R_-100" value="" style="endArrow=none;html=1;rounded=0;exitX=1;exitY=1;exitDx=0;exitDy=0;entryX=0.5;entryY=0;entryDx=0;entryDy=0;" edge="1" parent="1" source="PPZBpviqJP9HBHw-S2R_-66" target="PPZBpviqJP9HBHw-S2R_-91">
          <mxGeometry relative="1" as="geometry">
            <mxPoint x="-1295" y="505" as="sourcePoint" />
            <mxPoint x="-1135" y="505" as="targetPoint" />
          </mxGeometry>
        </mxCell>
        <mxCell id="PPZBpviqJP9HBHw-S2R_-101" value="" style="endArrow=none;html=1;rounded=0;exitX=0.5;exitY=1;exitDx=0;exitDy=0;entryX=0.5;entryY=0;entryDx=0;entryDy=0;" edge="1" parent="1" source="PPZBpviqJP9HBHw-S2R_-66" target="PPZBpviqJP9HBHw-S2R_-92">
          <mxGeometry relative="1" as="geometry">
            <mxPoint x="-1295" y="505" as="sourcePoint" />
            <mxPoint x="-1135" y="505" as="targetPoint" />
          </mxGeometry>
        </mxCell>
        <mxCell id="PPZBpviqJP9HBHw-S2R_-102" value="" style="endArrow=none;html=1;rounded=0;exitX=0.5;exitY=0;exitDx=0;exitDy=0;entryX=0;entryY=1;entryDx=0;entryDy=0;" edge="1" parent="1" source="PPZBpviqJP9HBHw-S2R_-93" target="PPZBpviqJP9HBHw-S2R_-66">
          <mxGeometry relative="1" as="geometry">
            <mxPoint x="-1295" y="505" as="sourcePoint" />
            <mxPoint x="-1135" y="505" as="targetPoint" />
          </mxGeometry>
        </mxCell>
        <mxCell id="PPZBpviqJP9HBHw-S2R_-118" style="edgeStyle=orthogonalEdgeStyle;rounded=0;orthogonalLoop=1;jettySize=auto;html=1;exitX=0;exitY=0.5;exitDx=0;exitDy=0;entryX=0.5;entryY=0;entryDx=0;entryDy=0;strokeWidth=1;" edge="1" parent="1" source="PPZBpviqJP9HBHw-S2R_-107" target="PPZBpviqJP9HBHw-S2R_-57">
          <mxGeometry relative="1" as="geometry" />
        </mxCell>
        <mxCell id="PPZBpviqJP9HBHw-S2R_-120" style="edgeStyle=orthogonalEdgeStyle;rounded=0;orthogonalLoop=1;jettySize=auto;html=1;exitX=1;exitY=0.5;exitDx=0;exitDy=0;entryX=0;entryY=0.75;entryDx=0;entryDy=0;shape=flexArrow;" edge="1" parent="1" source="PPZBpviqJP9HBHw-S2R_-107" target="WzGFnHPqga62-5LOLE94-60">
          <mxGeometry relative="1" as="geometry" />
        </mxCell>
        <mxCell id="PPZBpviqJP9HBHw-S2R_-107" value="TRANSLATE" style="shape=rhombus;perimeter=rhombusPerimeter;whiteSpace=wrap;html=1;align=center;" vertex="1" parent="1">
          <mxGeometry x="1320" y="20" width="120" height="60" as="geometry" />
        </mxCell>
        <mxCell id="PPZBpviqJP9HBHw-S2R_-121" style="edgeStyle=orthogonalEdgeStyle;rounded=0;orthogonalLoop=1;jettySize=auto;html=1;exitX=0;exitY=0.5;exitDx=0;exitDy=0;entryX=1;entryY=0.5;entryDx=0;entryDy=0;" edge="1" parent="1" source="PPZBpviqJP9HBHw-S2R_-108" target="PPZBpviqJP9HBHw-S2R_-57">
          <mxGeometry relative="1" as="geometry" />
        </mxCell>
        <mxCell id="PPZBpviqJP9HBHw-S2R_-134" style="edgeStyle=orthogonalEdgeStyle;rounded=0;orthogonalLoop=1;jettySize=auto;html=1;exitX=1;exitY=0.5;exitDx=0;exitDy=0;entryX=0;entryY=0.75;entryDx=0;entryDy=0;shape=flexArrow;" edge="1" parent="1" source="PPZBpviqJP9HBHw-S2R_-108" target="PPZBpviqJP9HBHw-S2R_-13">
          <mxGeometry relative="1" as="geometry" />
        </mxCell>
        <mxCell id="PPZBpviqJP9HBHw-S2R_-108" value="TRANSLATE" style="shape=rhombus;perimeter=rhombusPerimeter;whiteSpace=wrap;html=1;align=center;" vertex="1" parent="1">
          <mxGeometry x="1330" y="290" width="120" height="60" as="geometry" />
        </mxCell>
        <mxCell id="PPZBpviqJP9HBHw-S2R_-123" style="edgeStyle=orthogonalEdgeStyle;rounded=0;orthogonalLoop=1;jettySize=auto;html=1;exitX=0;exitY=0.5;exitDx=0;exitDy=0;entryX=1;entryY=0.5;entryDx=0;entryDy=0;" edge="1" parent="1" source="PPZBpviqJP9HBHw-S2R_-109" target="PPZBpviqJP9HBHw-S2R_-57">
          <mxGeometry relative="1" as="geometry" />
        </mxCell>
        <mxCell id="PPZBpviqJP9HBHw-S2R_-133" style="edgeStyle=orthogonalEdgeStyle;rounded=0;orthogonalLoop=1;jettySize=auto;html=1;exitX=1;exitY=0.5;exitDx=0;exitDy=0;entryX=0;entryY=0.5;entryDx=0;entryDy=0;shape=flexArrow;" edge="1" parent="1" source="PPZBpviqJP9HBHw-S2R_-109" target="PPZBpviqJP9HBHw-S2R_-28">
          <mxGeometry relative="1" as="geometry" />
        </mxCell>
        <mxCell id="PPZBpviqJP9HBHw-S2R_-109" value="TRANSLATE" style="shape=rhombus;perimeter=rhombusPerimeter;whiteSpace=wrap;html=1;align=center;" vertex="1" parent="1">
          <mxGeometry x="1330" y="510" width="120" height="60" as="geometry" />
        </mxCell>
        <mxCell id="PPZBpviqJP9HBHw-S2R_-126" style="edgeStyle=orthogonalEdgeStyle;rounded=0;orthogonalLoop=1;jettySize=auto;html=1;exitX=0;exitY=0.5;exitDx=0;exitDy=0;entryX=0.5;entryY=1;entryDx=0;entryDy=0;" edge="1" parent="1" source="PPZBpviqJP9HBHw-S2R_-110" target="PPZBpviqJP9HBHw-S2R_-57">
          <mxGeometry relative="1" as="geometry" />
        </mxCell>
        <mxCell id="PPZBpviqJP9HBHw-S2R_-132" style="edgeStyle=orthogonalEdgeStyle;rounded=0;orthogonalLoop=1;jettySize=auto;html=1;exitX=1;exitY=0.5;exitDx=0;exitDy=0;entryX=0;entryY=0.25;entryDx=0;entryDy=0;shape=flexArrow;" edge="1" parent="1" source="PPZBpviqJP9HBHw-S2R_-110" target="PPZBpviqJP9HBHw-S2R_-43">
          <mxGeometry relative="1" as="geometry" />
        </mxCell>
        <mxCell id="PPZBpviqJP9HBHw-S2R_-110" value="TRANSLATE" style="shape=rhombus;perimeter=rhombusPerimeter;whiteSpace=wrap;html=1;align=center;" vertex="1" parent="1">
          <mxGeometry x="1370" y="740" width="120" height="60" as="geometry" />
        </mxCell>
        <mxCell id="PPZBpviqJP9HBHw-S2R_-128" style="edgeStyle=orthogonalEdgeStyle;rounded=0;orthogonalLoop=1;jettySize=auto;html=1;exitX=1;exitY=0.5;exitDx=0;exitDy=0;entryX=0.5;entryY=1;entryDx=0;entryDy=0;" edge="1" parent="1" source="PPZBpviqJP9HBHw-S2R_-111" target="PPZBpviqJP9HBHw-S2R_-57">
          <mxGeometry relative="1" as="geometry" />
        </mxCell>
        <mxCell id="PPZBpviqJP9HBHw-S2R_-131" style="edgeStyle=orthogonalEdgeStyle;rounded=0;orthogonalLoop=1;jettySize=auto;html=1;exitX=0;exitY=0.5;exitDx=0;exitDy=0;entryX=1;entryY=0.5;entryDx=0;entryDy=0;shape=flexArrow;" edge="1" parent="1" source="PPZBpviqJP9HBHw-S2R_-111" target="WzGFnHPqga62-5LOLE94-75">
          <mxGeometry relative="1" as="geometry" />
        </mxCell>
        <mxCell id="PPZBpviqJP9HBHw-S2R_-111" value="TRANSLATE" style="shape=rhombus;perimeter=rhombusPerimeter;whiteSpace=wrap;html=1;align=center;" vertex="1" parent="1">
          <mxGeometry x="560" y="830" width="120" height="60" as="geometry" />
        </mxCell>
        <mxCell id="PPZBpviqJP9HBHw-S2R_-129" style="edgeStyle=orthogonalEdgeStyle;rounded=0;orthogonalLoop=1;jettySize=auto;html=1;exitX=1;exitY=0.5;exitDx=0;exitDy=0;entryX=0.5;entryY=1;entryDx=0;entryDy=0;" edge="1" parent="1" source="PPZBpviqJP9HBHw-S2R_-112" target="PPZBpviqJP9HBHw-S2R_-57">
          <mxGeometry relative="1" as="geometry" />
        </mxCell>
        <mxCell id="PPZBpviqJP9HBHw-S2R_-137" style="edgeStyle=orthogonalEdgeStyle;rounded=0;orthogonalLoop=1;jettySize=auto;html=1;exitX=0;exitY=0.5;exitDx=0;exitDy=0;entryX=1;entryY=0.5;entryDx=0;entryDy=0;shape=flexArrow;" edge="1" parent="1" source="PPZBpviqJP9HBHw-S2R_-112" target="WzGFnHPqga62-5LOLE94-45">
          <mxGeometry relative="1" as="geometry" />
        </mxCell>
        <mxCell id="PPZBpviqJP9HBHw-S2R_-112" value="TRANSLATE" style="shape=rhombus;perimeter=rhombusPerimeter;whiteSpace=wrap;html=1;align=center;" vertex="1" parent="1">
          <mxGeometry x="540" y="585" width="120" height="60" as="geometry" />
        </mxCell>
        <mxCell id="PPZBpviqJP9HBHw-S2R_-130" style="edgeStyle=orthogonalEdgeStyle;rounded=0;orthogonalLoop=1;jettySize=auto;html=1;exitX=1;exitY=0.5;exitDx=0;exitDy=0;entryX=0.5;entryY=0;entryDx=0;entryDy=0;" edge="1" parent="1" source="PPZBpviqJP9HBHw-S2R_-113" target="PPZBpviqJP9HBHw-S2R_-57">
          <mxGeometry relative="1" as="geometry" />
        </mxCell>
        <mxCell id="PPZBpviqJP9HBHw-S2R_-136" style="edgeStyle=orthogonalEdgeStyle;rounded=0;orthogonalLoop=1;jettySize=auto;html=1;exitX=0;exitY=0.5;exitDx=0;exitDy=0;entryX=1;entryY=0.5;entryDx=0;entryDy=0;shape=flexArrow;" edge="1" parent="1" source="PPZBpviqJP9HBHw-S2R_-113" target="WzGFnHPqga62-5LOLE94-29">
          <mxGeometry relative="1" as="geometry" />
        </mxCell>
        <mxCell id="PPZBpviqJP9HBHw-S2R_-113" value="TRANSLATE" style="shape=rhombus;perimeter=rhombusPerimeter;whiteSpace=wrap;html=1;align=center;" vertex="1" parent="1">
          <mxGeometry x="520" y="340" width="120" height="60" as="geometry" />
        </mxCell>
        <mxCell id="PPZBpviqJP9HBHw-S2R_-124" style="edgeStyle=orthogonalEdgeStyle;rounded=0;orthogonalLoop=1;jettySize=auto;html=1;exitX=1;exitY=0.5;exitDx=0;exitDy=0;entryX=0.5;entryY=0;entryDx=0;entryDy=0;" edge="1" parent="1" source="PPZBpviqJP9HBHw-S2R_-114" target="PPZBpviqJP9HBHw-S2R_-57">
          <mxGeometry relative="1" as="geometry" />
        </mxCell>
        <mxCell id="PPZBpviqJP9HBHw-S2R_-135" style="edgeStyle=orthogonalEdgeStyle;rounded=0;orthogonalLoop=1;jettySize=auto;html=1;exitX=0;exitY=0.5;exitDx=0;exitDy=0;entryX=1;entryY=0.75;entryDx=0;entryDy=0;shape=flexArrow;" edge="1" parent="1" source="PPZBpviqJP9HBHw-S2R_-114" target="WzGFnHPqga62-5LOLE94-5">
          <mxGeometry relative="1" as="geometry" />
        </mxCell>
        <mxCell id="PPZBpviqJP9HBHw-S2R_-114" value="TRANSLATE" style="shape=rhombus;perimeter=rhombusPerimeter;whiteSpace=wrap;html=1;align=center;" vertex="1" parent="1">
          <mxGeometry x="520" y="90" width="120" height="60" as="geometry" />
        </mxCell>
        <mxCell id="PPZBpviqJP9HBHw-S2R_-143" style="edgeStyle=orthogonalEdgeStyle;rounded=0;orthogonalLoop=1;jettySize=auto;html=1;exitX=1;exitY=0.5;exitDx=0;exitDy=0;entryX=0;entryY=0.25;entryDx=0;entryDy=0;shape=link;" edge="1" parent="1" source="PPZBpviqJP9HBHw-S2R_-138" target="WzGFnHPqga62-5LOLE94-5">
          <mxGeometry relative="1" as="geometry" />
        </mxCell>
        <mxCell id="PPZBpviqJP9HBHw-S2R_-145" style="edgeStyle=orthogonalEdgeStyle;rounded=0;orthogonalLoop=1;jettySize=auto;html=1;exitX=0;exitY=0.5;exitDx=0;exitDy=0;entryX=1;entryY=0.5;entryDx=0;entryDy=0;endArrow=none;endFill=0;" edge="1" parent="1" source="PPZBpviqJP9HBHw-S2R_-138" target="PPZBpviqJP9HBHw-S2R_-66">
          <mxGeometry relative="1" as="geometry" />
        </mxCell>
        <mxCell id="PPZBpviqJP9HBHw-S2R_-138" value="QUOTE" style="shape=rhombus;perimeter=rhombusPerimeter;whiteSpace=wrap;html=1;align=center;" vertex="1" parent="1">
          <mxGeometry x="-1070" y="70" width="120" height="60" as="geometry" />
        </mxCell>
        <mxCell id="PPZBpviqJP9HBHw-S2R_-141" style="edgeStyle=orthogonalEdgeStyle;rounded=0;orthogonalLoop=1;jettySize=auto;html=1;exitX=0;exitY=0.5;exitDx=0;exitDy=0;entryX=1;entryY=0.5;entryDx=0;entryDy=0;endArrow=none;endFill=0;" edge="1" parent="1" source="PPZBpviqJP9HBHw-S2R_-139" target="PPZBpviqJP9HBHw-S2R_-66">
          <mxGeometry relative="1" as="geometry" />
        </mxCell>
        <mxCell id="PPZBpviqJP9HBHw-S2R_-142" style="edgeStyle=orthogonalEdgeStyle;rounded=0;orthogonalLoop=1;jettySize=auto;html=1;exitX=1;exitY=0.5;exitDx=0;exitDy=0;entryX=0;entryY=0.5;entryDx=0;entryDy=0;shape=link;" edge="1" parent="1" source="PPZBpviqJP9HBHw-S2R_-139" target="WzGFnHPqga62-5LOLE94-29">
          <mxGeometry relative="1" as="geometry" />
        </mxCell>
        <mxCell id="PPZBpviqJP9HBHw-S2R_-139" value="QUOTE" style="shape=rhombus;perimeter=rhombusPerimeter;whiteSpace=wrap;html=1;align=center;" vertex="1" parent="1">
          <mxGeometry x="-1070" y="340" width="120" height="60" as="geometry" />
        </mxCell>
        <mxCell id="PPZBpviqJP9HBHw-S2R_-146" style="edgeStyle=orthogonalEdgeStyle;rounded=0;orthogonalLoop=1;jettySize=auto;html=1;exitX=1;exitY=0.5;exitDx=0;exitDy=0;entryX=0;entryY=0.5;entryDx=0;entryDy=0;shape=link;" edge="1" parent="1" source="PPZBpviqJP9HBHw-S2R_-140" target="WzGFnHPqga62-5LOLE94-45">
          <mxGeometry relative="1" as="geometry" />
        </mxCell>
        <mxCell id="PPZBpviqJP9HBHw-S2R_-147" style="edgeStyle=orthogonalEdgeStyle;rounded=0;orthogonalLoop=1;jettySize=auto;html=1;exitX=0;exitY=0.5;exitDx=0;exitDy=0;entryX=1;entryY=0.5;entryDx=0;entryDy=0;endArrow=none;endFill=0;" edge="1" parent="1" source="PPZBpviqJP9HBHw-S2R_-140" target="PPZBpviqJP9HBHw-S2R_-66">
          <mxGeometry relative="1" as="geometry">
            <Array as="points">
              <mxPoint x="-1190" y="565" />
              <mxPoint x="-1190" y="315" />
            </Array>
          </mxGeometry>
        </mxCell>
        <mxCell id="PPZBpviqJP9HBHw-S2R_-140" value="QUOTE" style="shape=rhombus;perimeter=rhombusPerimeter;whiteSpace=wrap;html=1;align=center;" vertex="1" parent="1">
          <mxGeometry x="-1055" y="535" width="120" height="60" as="geometry" />
        </mxCell>
        <mxCell id="PPZBpviqJP9HBHw-S2R_-168" style="edgeStyle=orthogonalEdgeStyle;rounded=0;orthogonalLoop=1;jettySize=auto;html=1;exitX=1;exitY=0.5;exitDx=0;exitDy=0;entryX=0.5;entryY=0;entryDx=0;entryDy=0;endArrow=none;endFill=0;" edge="1" parent="1" source="PPZBpviqJP9HBHw-S2R_-149" target="PPZBpviqJP9HBHw-S2R_-71">
          <mxGeometry relative="1" as="geometry" />
        </mxCell>
        <mxCell id="PPZBpviqJP9HBHw-S2R_-173" style="edgeStyle=orthogonalEdgeStyle;rounded=0;orthogonalLoop=1;jettySize=auto;html=1;exitX=0;exitY=0.5;exitDx=0;exitDy=0;entryX=1;entryY=1;entryDx=0;entryDy=0;endArrow=classic;endFill=1;" edge="1" parent="1" source="PPZBpviqJP9HBHw-S2R_-149" target="WzGFnHPqga62-5LOLE94-5">
          <mxGeometry relative="1" as="geometry" />
        </mxCell>
        <mxCell id="PPZBpviqJP9HBHw-S2R_-149" value="BELONG" style="shape=rhombus;perimeter=rhombusPerimeter;whiteSpace=wrap;html=1;align=center;" vertex="1" parent="1">
          <mxGeometry x="260" y="140" width="120" height="60" as="geometry" />
        </mxCell>
        <mxCell id="PPZBpviqJP9HBHw-S2R_-167" style="edgeStyle=orthogonalEdgeStyle;rounded=0;orthogonalLoop=1;jettySize=auto;html=1;exitX=1;exitY=0.5;exitDx=0;exitDy=0;entryX=0.5;entryY=0;entryDx=0;entryDy=0;endArrow=none;endFill=0;" edge="1" parent="1" source="PPZBpviqJP9HBHw-S2R_-150" target="PPZBpviqJP9HBHw-S2R_-71">
          <mxGeometry relative="1" as="geometry" />
        </mxCell>
        <mxCell id="PPZBpviqJP9HBHw-S2R_-172" style="edgeStyle=orthogonalEdgeStyle;rounded=0;orthogonalLoop=1;jettySize=auto;html=1;exitX=0;exitY=0.5;exitDx=0;exitDy=0;entryX=1;entryY=1;entryDx=0;entryDy=0;endArrow=classic;endFill=1;" edge="1" parent="1" source="PPZBpviqJP9HBHw-S2R_-150" target="WzGFnHPqga62-5LOLE94-29">
          <mxGeometry relative="1" as="geometry" />
        </mxCell>
        <mxCell id="PPZBpviqJP9HBHw-S2R_-150" value="BELONG" style="shape=rhombus;perimeter=rhombusPerimeter;whiteSpace=wrap;html=1;align=center;" vertex="1" parent="1">
          <mxGeometry x="220" y="400" width="120" height="60" as="geometry" />
        </mxCell>
        <mxCell id="PPZBpviqJP9HBHw-S2R_-164" style="edgeStyle=orthogonalEdgeStyle;rounded=0;orthogonalLoop=1;jettySize=auto;html=1;exitX=1;exitY=0.5;exitDx=0;exitDy=0;entryX=0.5;entryY=0;entryDx=0;entryDy=0;endArrow=none;endFill=0;" edge="1" parent="1" source="PPZBpviqJP9HBHw-S2R_-151" target="PPZBpviqJP9HBHw-S2R_-71">
          <mxGeometry relative="1" as="geometry" />
        </mxCell>
        <mxCell id="PPZBpviqJP9HBHw-S2R_-170" style="edgeStyle=orthogonalEdgeStyle;rounded=0;orthogonalLoop=1;jettySize=auto;html=1;exitX=0;exitY=0.5;exitDx=0;exitDy=0;entryX=1;entryY=1;entryDx=0;entryDy=0;endArrow=classicThin;endFill=1;" edge="1" parent="1" source="PPZBpviqJP9HBHw-S2R_-151" target="WzGFnHPqga62-5LOLE94-45">
          <mxGeometry relative="1" as="geometry" />
        </mxCell>
        <mxCell id="PPZBpviqJP9HBHw-S2R_-151" value="BELONG" style="shape=rhombus;perimeter=rhombusPerimeter;whiteSpace=wrap;html=1;align=center;" vertex="1" parent="1">
          <mxGeometry x="220" y="645" width="120" height="60" as="geometry" />
        </mxCell>
        <mxCell id="PPZBpviqJP9HBHw-S2R_-161" style="edgeStyle=orthogonalEdgeStyle;rounded=0;orthogonalLoop=1;jettySize=auto;html=1;exitX=1;exitY=0.5;exitDx=0;exitDy=0;entryX=0;entryY=0.5;entryDx=0;entryDy=0;endArrow=none;endFill=0;" edge="1" parent="1" source="PPZBpviqJP9HBHw-S2R_-152" target="PPZBpviqJP9HBHw-S2R_-71">
          <mxGeometry relative="1" as="geometry" />
        </mxCell>
        <mxCell id="PPZBpviqJP9HBHw-S2R_-169" style="edgeStyle=orthogonalEdgeStyle;rounded=0;orthogonalLoop=1;jettySize=auto;html=1;exitX=0;exitY=0.5;exitDx=0;exitDy=0;entryX=1;entryY=0.5;entryDx=0;entryDy=0;shape=flexArrow;" edge="1" parent="1" source="PPZBpviqJP9HBHw-S2R_-152" target="WzGFnHPqga62-5LOLE94-75">
          <mxGeometry relative="1" as="geometry" />
        </mxCell>
        <mxCell id="PPZBpviqJP9HBHw-S2R_-152" value="BELONG" style="shape=rhombus;perimeter=rhombusPerimeter;whiteSpace=wrap;html=1;align=center;" vertex="1" parent="1">
          <mxGeometry x="224" y="910" width="120" height="60" as="geometry" />
        </mxCell>
        <mxCell id="PPZBpviqJP9HBHw-S2R_-155" style="edgeStyle=orthogonalEdgeStyle;rounded=0;orthogonalLoop=1;jettySize=auto;html=1;exitX=1;exitY=0.5;exitDx=0;exitDy=0;entryX=0.5;entryY=1;entryDx=0;entryDy=0;shape=flexArrow;" edge="1" parent="1" source="PPZBpviqJP9HBHw-S2R_-153" target="PPZBpviqJP9HBHw-S2R_-43">
          <mxGeometry relative="1" as="geometry" />
        </mxCell>
        <mxCell id="PPZBpviqJP9HBHw-S2R_-156" style="edgeStyle=orthogonalEdgeStyle;rounded=0;orthogonalLoop=1;jettySize=auto;html=1;exitX=0;exitY=0.5;exitDx=0;exitDy=0;entryX=1;entryY=0.5;entryDx=0;entryDy=0;endArrow=none;endFill=0;" edge="1" parent="1" source="PPZBpviqJP9HBHw-S2R_-153" target="PPZBpviqJP9HBHw-S2R_-71">
          <mxGeometry relative="1" as="geometry">
            <mxPoint x="1040" y="1250" as="targetPoint" />
          </mxGeometry>
        </mxCell>
        <mxCell id="PPZBpviqJP9HBHw-S2R_-153" value="BELONG" style="shape=rhombus;perimeter=rhombusPerimeter;whiteSpace=wrap;html=1;align=center;" vertex="1" parent="1">
          <mxGeometry x="1460" y="900" width="120" height="60" as="geometry" />
        </mxCell>
        <mxCell id="PPZBpviqJP9HBHw-S2R_-174" value="" style="endArrow=none;html=1;rounded=0;exitX=1;exitY=0.5;exitDx=0;exitDy=0;entryX=0;entryY=0.5;entryDx=0;entryDy=0;" edge="1" parent="1" source="PPZBpviqJP9HBHw-S2R_-87" target="PPZBpviqJP9HBHw-S2R_-66">
          <mxGeometry relative="1" as="geometry">
            <mxPoint x="-755" y="415" as="sourcePoint" />
            <mxPoint x="-1425" y="315" as="targetPoint" />
          </mxGeometry>
        </mxCell>
        <mxCell id="PPZBpviqJP9HBHw-S2R_-178" style="edgeStyle=orthogonalEdgeStyle;rounded=0;orthogonalLoop=1;jettySize=auto;html=1;exitX=1;exitY=0.5;exitDx=0;exitDy=0;entryX=0;entryY=0.25;entryDx=0;entryDy=0;shape=link;" edge="1" parent="1" source="PPZBpviqJP9HBHw-S2R_-175" target="WzGFnHPqga62-5LOLE94-5">
          <mxGeometry relative="1" as="geometry" />
        </mxCell>
        <mxCell id="PPZBpviqJP9HBHw-S2R_-185" style="edgeStyle=orthogonalEdgeStyle;rounded=0;orthogonalLoop=1;jettySize=auto;html=1;exitX=0;exitY=0.5;exitDx=0;exitDy=0;entryX=1;entryY=0.5;entryDx=0;entryDy=0;endArrow=none;endFill=0;" edge="1" parent="1" source="PPZBpviqJP9HBHw-S2R_-175" target="PPZBpviqJP9HBHw-S2R_-65">
          <mxGeometry relative="1" as="geometry" />
        </mxCell>
        <mxCell id="PPZBpviqJP9HBHw-S2R_-175" value="WRITE" style="shape=rhombus;perimeter=rhombusPerimeter;whiteSpace=wrap;html=1;align=center;" vertex="1" parent="1">
          <mxGeometry x="-950" y="595" width="120" height="60" as="geometry" />
        </mxCell>
        <mxCell id="PPZBpviqJP9HBHw-S2R_-180" style="edgeStyle=orthogonalEdgeStyle;rounded=0;orthogonalLoop=1;jettySize=auto;html=1;exitX=1;exitY=0.5;exitDx=0;exitDy=0;entryX=0;entryY=0.5;entryDx=0;entryDy=0;shape=link;" edge="1" parent="1" source="PPZBpviqJP9HBHw-S2R_-176" target="WzGFnHPqga62-5LOLE94-45">
          <mxGeometry relative="1" as="geometry" />
        </mxCell>
        <mxCell id="PPZBpviqJP9HBHw-S2R_-183" style="edgeStyle=orthogonalEdgeStyle;rounded=0;orthogonalLoop=1;jettySize=auto;html=1;exitX=0;exitY=0.5;exitDx=0;exitDy=0;entryX=1;entryY=0.5;entryDx=0;entryDy=0;endArrow=none;endFill=0;" edge="1" parent="1" source="PPZBpviqJP9HBHw-S2R_-176" target="PPZBpviqJP9HBHw-S2R_-65">
          <mxGeometry relative="1" as="geometry" />
        </mxCell>
        <mxCell id="PPZBpviqJP9HBHw-S2R_-176" value="WRITE" style="shape=rhombus;perimeter=rhombusPerimeter;whiteSpace=wrap;html=1;align=center;" vertex="1" parent="1">
          <mxGeometry x="-950" y="825" width="120" height="60" as="geometry" />
        </mxCell>
        <mxCell id="PPZBpviqJP9HBHw-S2R_-179" style="edgeStyle=orthogonalEdgeStyle;rounded=0;orthogonalLoop=1;jettySize=auto;html=1;exitX=1;exitY=0.5;exitDx=0;exitDy=0;entryX=0;entryY=0.5;entryDx=0;entryDy=0;shape=link;" edge="1" parent="1" source="PPZBpviqJP9HBHw-S2R_-177" target="WzGFnHPqga62-5LOLE94-29">
          <mxGeometry relative="1" as="geometry" />
        </mxCell>
        <mxCell id="PPZBpviqJP9HBHw-S2R_-182" style="edgeStyle=orthogonalEdgeStyle;rounded=0;orthogonalLoop=1;jettySize=auto;html=1;exitX=0;exitY=0.5;exitDx=0;exitDy=0;entryX=1;entryY=0.5;entryDx=0;entryDy=0;endArrow=none;endFill=0;" edge="1" parent="1" source="PPZBpviqJP9HBHw-S2R_-177" target="PPZBpviqJP9HBHw-S2R_-65">
          <mxGeometry relative="1" as="geometry" />
        </mxCell>
        <mxCell id="PPZBpviqJP9HBHw-S2R_-177" value="WRITE" style="shape=rhombus;perimeter=rhombusPerimeter;whiteSpace=wrap;html=1;align=center;" vertex="1" parent="1">
          <mxGeometry x="-950" y="705" width="120" height="60" as="geometry" />
        </mxCell>
        <mxCell id="PPZBpviqJP9HBHw-S2R_-198" style="edgeStyle=orthogonalEdgeStyle;rounded=0;orthogonalLoop=1;jettySize=auto;html=1;exitX=1;exitY=0.5;exitDx=0;exitDy=0;entryX=0;entryY=0.5;entryDx=0;entryDy=0;endArrow=none;endFill=0;" edge="1" parent="1" source="PPZBpviqJP9HBHw-S2R_-189" target="PPZBpviqJP9HBHw-S2R_-63">
          <mxGeometry relative="1" as="geometry" />
        </mxCell>
        <mxCell id="PPZBpviqJP9HBHw-S2R_-203" style="edgeStyle=orthogonalEdgeStyle;rounded=0;orthogonalLoop=1;jettySize=auto;html=1;exitX=0;exitY=0.5;exitDx=0;exitDy=0;entryX=0;entryY=0.5;entryDx=0;entryDy=0;shape=link;" edge="1" parent="1" source="PPZBpviqJP9HBHw-S2R_-189" target="WzGFnHPqga62-5LOLE94-29">
          <mxGeometry relative="1" as="geometry">
            <Array as="points">
              <mxPoint x="-280" y="-405" />
              <mxPoint x="-280" y="370" />
            </Array>
          </mxGeometry>
        </mxCell>
        <mxCell id="PPZBpviqJP9HBHw-S2R_-189" value="IDENTIFICAR" style="shape=rhombus;perimeter=rhombusPerimeter;whiteSpace=wrap;html=1;align=center;" vertex="1" parent="1">
          <mxGeometry x="-166" y="-435.5" width="120" height="60" as="geometry" />
        </mxCell>
        <mxCell id="PPZBpviqJP9HBHw-S2R_-194" style="edgeStyle=orthogonalEdgeStyle;rounded=0;orthogonalLoop=1;jettySize=auto;html=1;exitX=1;exitY=0.5;exitDx=0;exitDy=0;entryX=1;entryY=0.25;entryDx=0;entryDy=0;shape=link;" edge="1" parent="1" source="PPZBpviqJP9HBHw-S2R_-190" target="WzGFnHPqga62-5LOLE94-60">
          <mxGeometry relative="1" as="geometry">
            <Array as="points">
              <mxPoint x="1920" y="-340" />
              <mxPoint x="1920" y="30" />
            </Array>
          </mxGeometry>
        </mxCell>
        <mxCell id="PPZBpviqJP9HBHw-S2R_-190" value="IDENTIFICAR" style="shape=rhombus;perimeter=rhombusPerimeter;whiteSpace=wrap;html=1;align=center;" vertex="1" parent="1">
          <mxGeometry x="920" y="-370" width="120" height="60" as="geometry" />
        </mxCell>
        <mxCell id="PPZBpviqJP9HBHw-S2R_-196" style="edgeStyle=orthogonalEdgeStyle;rounded=0;orthogonalLoop=1;jettySize=auto;html=1;exitX=1;exitY=0.5;exitDx=0;exitDy=0;entryX=0;entryY=0.5;entryDx=0;entryDy=0;endArrow=none;endFill=0;" edge="1" parent="1" source="PPZBpviqJP9HBHw-S2R_-192" target="PPZBpviqJP9HBHw-S2R_-63">
          <mxGeometry relative="1" as="geometry" />
        </mxCell>
        <mxCell id="PPZBpviqJP9HBHw-S2R_-202" style="edgeStyle=orthogonalEdgeStyle;rounded=0;orthogonalLoop=1;jettySize=auto;html=1;exitX=0;exitY=0.5;exitDx=0;exitDy=0;entryX=0;entryY=0.5;entryDx=0;entryDy=0;shape=link;" edge="1" parent="1" source="PPZBpviqJP9HBHw-S2R_-192" target="WzGFnHPqga62-5LOLE94-45">
          <mxGeometry relative="1" as="geometry">
            <Array as="points">
              <mxPoint x="-280" y="-285" />
              <mxPoint x="-280" y="615" />
            </Array>
          </mxGeometry>
        </mxCell>
        <mxCell id="PPZBpviqJP9HBHw-S2R_-192" value="IDENTIFICAR" style="shape=rhombus;perimeter=rhombusPerimeter;whiteSpace=wrap;html=1;align=center;" vertex="1" parent="1">
          <mxGeometry x="-166" y="-315.5" width="120" height="60" as="geometry" />
        </mxCell>
        <mxCell id="PPZBpviqJP9HBHw-S2R_-199" style="edgeStyle=orthogonalEdgeStyle;rounded=0;orthogonalLoop=1;jettySize=auto;html=1;exitX=1;exitY=0.5;exitDx=0;exitDy=0;entryX=0;entryY=0.5;entryDx=0;entryDy=0;endArrow=none;endFill=0;" edge="1" parent="1" source="PPZBpviqJP9HBHw-S2R_-193" target="PPZBpviqJP9HBHw-S2R_-63">
          <mxGeometry relative="1" as="geometry" />
        </mxCell>
        <mxCell id="PPZBpviqJP9HBHw-S2R_-204" style="edgeStyle=orthogonalEdgeStyle;rounded=0;orthogonalLoop=1;jettySize=auto;html=1;exitX=0;exitY=0.5;exitDx=0;exitDy=0;entryX=0;entryY=0.25;entryDx=0;entryDy=0;shape=link;" edge="1" parent="1" source="PPZBpviqJP9HBHw-S2R_-193" target="WzGFnHPqga62-5LOLE94-5">
          <mxGeometry relative="1" as="geometry">
            <Array as="points">
              <mxPoint x="-280" y="-530" />
              <mxPoint x="-280" y="100" />
            </Array>
          </mxGeometry>
        </mxCell>
        <mxCell id="PPZBpviqJP9HBHw-S2R_-193" value="IDENTIFICAR" style="shape=rhombus;perimeter=rhombusPerimeter;whiteSpace=wrap;html=1;align=center;" vertex="1" parent="1">
          <mxGeometry x="-166" y="-560" width="120" height="60" as="geometry" />
        </mxCell>
        <mxCell id="PPZBpviqJP9HBHw-S2R_-208" style="edgeStyle=orthogonalEdgeStyle;rounded=0;orthogonalLoop=1;jettySize=auto;html=1;exitX=0.5;exitY=0;exitDx=0;exitDy=0;entryX=0.5;entryY=0;entryDx=0;entryDy=0;shape=link;" edge="1" parent="1" source="PPZBpviqJP9HBHw-S2R_-206" target="PPZBpviqJP9HBHw-S2R_-66">
          <mxGeometry relative="1" as="geometry">
            <Array as="points">
              <mxPoint x="-1720" y="170" />
              <mxPoint x="-1365" y="170" />
            </Array>
          </mxGeometry>
        </mxCell>
        <mxCell id="PPZBpviqJP9HBHw-S2R_-206" value="PARTICIPATE" style="shape=rhombus;perimeter=rhombusPerimeter;whiteSpace=wrap;html=1;align=center;" vertex="1" parent="1">
          <mxGeometry x="-1780" y="475" width="120" height="60" as="geometry" />
        </mxCell>
        <mxCell id="DVakVZUJYPYhM2h52mxh-2" style="edgeStyle=orthogonalEdgeStyle;rounded=0;orthogonalLoop=1;jettySize=auto;html=1;exitX=0.5;exitY=0;exitDx=0;exitDy=0;entryX=0.5;entryY=1;entryDx=0;entryDy=0;endArrow=none;endFill=0;" edge="1" parent="1" source="DVakVZUJYPYhM2h52mxh-1" target="PPZBpviqJP9HBHw-S2R_-63">
          <mxGeometry relative="1" as="geometry" />
        </mxCell>
        <mxCell id="DVakVZUJYPYhM2h52mxh-1" value="DESCRIPTION" style="ellipse;whiteSpace=wrap;html=1;align=center;" vertex="1" parent="1">
          <mxGeometry x="254" y="-305.5" width="100" height="40" as="geometry" />
        </mxCell>
      </root>
    </mxGraphModel>
  </diagram>
</mxfile>
